<?xml version="1.0" encoding="utf-8"?>
<!-- Generator: Adobe Illustrator 22.1.0, SVG Export Plug-In . SVG Version: 6.00 Build 0)  -->
<svg version="1.1" id="Layer_1" xmlns="http://www.w3.org/2000/svg" xmlns:xlink="http://www.w3.org/1999/xlink" x="0px" y="0px"
	 viewBox="0 0 470 75"  width="470" height="75" style="enable-background:new 0 0 470 75;" xml:space="preserve">
<style type="text/css">
	.st0{fill:#CD1B1B;}
	.st1{fill:#A70C0C;}
	.st2{fill:#F5F5F5;}
	.st3{fill:#414141;}
</style>
<rect x="0" class="st0" width="115" height="75"/>
<rect x="115" class="st1" width="81" height="75"/>
<g>
	<path class="st2" d="M62.1,62.6c-2.8,1.3-8.5,2.6-15.7,2.6c-16.8,0-29.5-9.7-29.5-27.4c0-17,12.7-28.5,31.1-28.5
		c7.4,0,12.1,1.4,14.2,2.4l-1.9,5.7c-2.9-1.3-7.1-2.3-12-2.3c-14,0-23.3,8.1-23.3,22.4c0,13.3,8.4,21.8,22.9,21.8
		c4.7,0,9.5-0.9,12.6-2.3L62.1,62.6z"/>
	<path class="st2" d="M71.5,7.2h7.8v57.1h-7.8V7.2z"/>
	<path class="st2" d="M116.1,64.3l-0.6-4.9h-0.3c-2.4,3.1-7,5.8-13.1,5.8C93.4,65.2,89,59.7,89,54c0-9.4,9.2-14.6,25.7-14.5v-0.8
		c0-3.2-1-9-9.7-9c-4,0-8.1,1.1-11.1,2.9L92.1,28c3.5-2.1,8.7-3.5,14.1-3.5c13.1,0,16.3,8.1,16.3,15.9V55c0,3.4,0.2,6.7,0.7,9.3
		H116.1z M114.9,44.5c-8.5-0.2-18.1,1.2-18.1,8.8c0,4.6,3.4,6.8,7.3,6.8c5.6,0,9.1-3.2,10.4-6.5c0.3-0.7,0.4-1.5,0.4-2.3V44.5z"/>
	<path class="st2" d="M135,35.9c0-4-0.1-7.3-0.4-10.5h6.9l0.4,6.4h0.2c2.1-3.7,7.1-7.3,14.2-7.3c5.9,0,15.1,3.2,15.1,16.6v23.2h-7.8
		V41.9c0-6.3-2.6-11.5-9.9-11.5c-5.1,0-9.1,3.3-10.4,7.2c-0.4,0.9-0.5,2.1-0.5,3.3v23.4H135V35.9z"/>
</g>
<g>
	<path class="st3" d="M227.1,11.7h8.7l20.4,53.6h-8.1l-10.5-29.9c-2.2-6-4.1-11.9-6-18.1h-0.4c-1.9,6.2-3.8,12.1-6,18.1l-10.6,29.9
		h-7.8L227.1,11.7z M217.4,43.5h27.8V49h-27.8V43.5z"/>
	<path class="st3" d="M264.3,11.7h15.1c18.6,0,28.5,9.6,28.5,26.6c0,17-10,27-28.2,27h-15.4V11.7z M278.9,59.7
		c14.1,0,21.2-7.8,21.2-21.4c0-13.5-7-21-21.2-21H272v42.4H278.9z"/>
	<path class="st3" d="M320.9,11.7h9.3l11.6,28.6c1.5,3.7,2.8,7.4,4.3,11.2h0.4c1.5-3.7,2.7-7.5,4.2-11.2L362,11.7h9.3v53.6h-7.1
		V35.8c0-4.7,0.6-11.1,1-15.8h-0.4L360,32.2l-11.4,27.7h-5.1l-11.4-27.7l-4.8-12.2h-0.4c0.4,4.7,1,11.2,1,15.8v29.5h-7V11.7z"/>
	<path class="st3" d="M387.8,11.7h7.7v53.6h-7.7V11.7z"/>
	<path class="st3" d="M412,11.7h7.9l21.9,33.7l6.5,11.1h0.4c-0.4-5.4-1-11.4-1-17V11.7h7.3v53.6h-7.9l-21.9-33.7l-6.5-11.1h-0.4
		c0.4,5.4,1,11.1,1,16.7v28H412V11.7z"/>
</g>
<g>
</g>
<g>
</g>
<g>
</g>
<g>
</g>
<g>
</g>
<g>
</g>
<g>
</g>
<g>
</g>
<g>
</g>
<g>
</g>
<g>
</g>
</svg>
